<svg width="322" height="233" viewBox="0 0 322 233" fill="none" xmlns="http://www.w3.org/2000/svg">
<g filter="url(#filter0_d_2_46)">
<path d="M221 6H312V37.487V68.9739H278V37.487H255V96.7565H312V128.243V162.972V180.567V184.272V187.513V219H221V187.513V156.026H255V187.513H278V128.243H255H221V96.7565V48.137V6Z" fill="#0093B4"/>
<path d="M221 6H312V37.487V68.9739H278V37.487H255V96.7565H312V128.243V162.972V180.567V184.272V187.513V219H221V187.513V156.026H255V187.513H278V128.243H255H221V96.7565V48.137V6Z" fill="#0093B4"/>
<path d="M221 6H312V37.487V68.9739H278V37.487H255V96.7565H312V128.243V162.972V180.567V184.272V187.513V219H221V187.513V156.026H255V187.513H278V128.243H255H221V96.7565V48.137V6Z" stroke="white" stroke-width="12"/>
</g>
<path d="M94.6581 117.831C92.8934 125.831 88.8503 131.855 82.5289 135.901C81.0524 136.813 79.6534 137.509 78.332 137.99C77.0656 138.451 75.9919 138.842 75.111 139.162C74.265 139.408 73.2789 139.611 72.1526 139.772C71.0263 139.932 69.9325 139.925 68.8712 139.75C66.4131 139.335 64.8033 138.082 64.0418 135.989C63.4608 135.079 62.9499 134.017 62.509 132.806C62.0481 131.54 61.7222 129.788 61.5313 127.55C61.3404 125.312 61.5299 122.749 62.0997 119.861C62.7246 116.952 63.7225 114.126 65.0933 111.382C67.92 105.614 71.6456 101.203 76.2703 98.148C77.6367 97.2765 78.9255 96.6204 80.1368 96.1795C81.4032 95.7185 82.562 95.3903 83.6132 95.1948C86.8067 94.0324 89.7456 95.4257 92.43 99.3747C94.1478 101.867 95.9636 105.571 97.8773 110.486C99.8261 115.327 101.347 119.076 102.439 121.734C103.566 124.316 104.805 126.609 106.158 128.611L101.285 130.384C100.523 128.978 99.8773 127.716 99.3463 126.6C98.8154 125.484 98.3145 124.451 97.8436 123.5C96.7266 121.287 95.6648 119.398 94.6581 117.831ZM89.6684 105.15C88.5061 101.956 86.3557 100.931 83.2173 102.073C82.8118 102.158 82.4164 102.271 82.031 102.411C78.0116 103.874 74.4733 107.345 71.4163 112.822C69.9653 115.345 68.8973 117.979 68.2123 120.722C67.1522 124.662 67.073 127.871 67.9748 130.349C69.1572 133.598 71.7307 134.843 75.6952 134.086C80.6105 132.172 84.524 128.192 87.4357 122.143C88.6614 119.515 89.4967 116.841 89.9414 114.123C90.6011 110.454 90.5101 107.462 89.6684 105.15ZM116.594 123.877C114.677 125.635 113.333 126.654 112.562 126.934C111.846 127.195 111.321 127.293 110.985 127.228C110.65 127.163 110.207 126.887 109.656 126.402C108.995 124.585 108.218 122.28 107.326 119.487C106.489 116.674 105.555 113.678 104.523 110.499C103.491 107.321 102.393 104.135 101.231 100.941C100.069 97.748 98.8414 94.8899 97.5491 92.3673C96.9078 90.6054 97.771 89.2935 100.139 88.4318C100.689 88.2314 101.463 89.0722 102.46 90.9541C103.511 92.8161 104.293 94.2776 104.804 95.3387C105.37 96.3798 105.798 97.1281 106.088 97.5835C106.578 94.4746 108.672 91.4053 112.371 88.3756C114.368 86.8382 116.357 85.7088 118.339 84.9873C120.322 84.2659 122.146 83.8824 123.813 83.8368C125.515 83.7162 127.12 84.0987 128.627 84.9843C130.169 85.7948 131.311 87.2187 132.052 89.2559C132.502 86.0369 134.841 82.4419 139.07 78.4709C142.898 74.7703 146.63 72.2587 150.263 70.9361C155.494 69.0322 158.776 70.0825 160.109 74.0869L173.026 104.179C173.126 104.455 172.398 104.938 170.841 105.629C167.838 106.972 166.196 107.257 165.915 106.487C165.459 105.405 165.031 104.314 164.63 103.213L160.203 89.7657C157.939 83.5439 155.54 78.8365 153.006 75.6434C149.472 77.2414 146.884 78.8691 145.243 80.5265C143.636 82.1089 142.34 83.8589 141.355 85.7765C140.349 87.639 139.679 89.9094 139.344 92.5877C138.6 98.5952 139.751 105.783 142.797 114.153C142.888 115.429 142.025 116.398 140.208 117.059C138.996 117.5 137.935 117.668 137.024 117.563C136.093 117.403 135.65 117.128 135.695 116.738C134.616 110.521 133.486 105.788 132.304 102.539C131.362 99.9514 130.195 97.6014 128.802 95.4893C127.445 93.3021 125.83 90.8346 123.957 88.0869C116.028 90.9727 111.84 96.0825 111.391 103.416C111.202 106.665 111.476 109.559 112.212 112.097C112.984 114.559 113.691 116.672 114.332 118.434C114.953 120.14 115.707 121.955 116.594 123.877ZM171.919 67.7308C178.465 62.4175 184.463 58.7689 189.914 56.7849C196.852 54.2598 202.138 54.3934 205.773 57.1857C207.441 58.5118 208.635 60.166 209.357 62.1481C210.359 64.9011 210.51 68.0574 209.81 71.6168C209.165 75.1563 207.842 78.6308 205.841 82.0405C201.163 89.9163 194.301 96.2484 185.257 101.037C185.477 101.643 185.828 102.606 186.309 103.927C186.865 105.284 187.444 106.788 188.045 108.44C188.701 110.072 189.37 111.824 190.051 113.696C190.788 115.548 191.494 117.317 192.17 119.004C193.879 123.183 194.871 125.566 195.146 126.152C195.477 126.717 195.712 127.193 195.852 127.578C196.353 128.955 196.284 130.133 195.643 131.115C195.023 132.151 193.997 132.93 192.565 133.451C192.29 133.551 192.015 133.651 191.739 133.752L166.249 67.8301C166.484 66.934 167.025 66.3631 167.871 66.1176C168.717 65.8721 169.458 65.8518 170.093 66.0569C170.729 66.2619 171.338 66.8199 171.919 67.7308ZM197.087 61.8439C194.929 61.5692 192.804 61.8126 190.712 62.5741C188.675 63.3156 186.708 64.2498 184.811 65.3767C180.506 67.9411 177.804 71.1382 176.704 74.9681C176.234 76.7604 176.38 78.7027 177.141 80.795C177.221 81.0152 177.301 81.2354 177.382 81.4557L182.582 95.7438C193.003 89.0827 199.759 82.633 202.851 76.3946C204.662 72.8048 205.066 69.6334 204.064 66.8804C203.002 63.9622 200.676 62.2833 197.087 61.8439Z" fill="white"/>
<g filter="url(#filter1_d_2_46)">
<path d="M10 6H55.5H100V40V74H82.5H66V40H44V113.5V151V185H51H66V151H100V219H10V185V113.5V40V6Z" fill="#005467"/>
<path d="M10 6H55.5H100V40V74H82.5H66V40H44V113.5V151V185H51H66V151H100V219H10V185V113.5V40V6Z" fill="#005467"/>
<path d="M10 6V40V113.5V185V219H100V151H66V185H51H44V151V113.5V40H66V74H82.5H100V40V6H55.5H10Z" stroke="white" stroke-width="12"/>
</g>
<defs>
<filter id="filter0_d_2_46" x="211" y="0" width="111" height="233" filterUnits="userSpaceOnUse" color-interpolation-filters="sRGB">
<feFlood flood-opacity="0" result="BackgroundImageFix"/>
<feColorMatrix in="SourceAlpha" type="matrix" values="0 0 0 0 0 0 0 0 0 0 0 0 0 0 0 0 0 0 127 0" result="hardAlpha"/>
<feOffset dy="4"/>
<feGaussianBlur stdDeviation="2"/>
<feComposite in2="hardAlpha" operator="out"/>
<feColorMatrix type="matrix" values="0 0 0 0 0 0 0 0 0 0 0 0 0 0 0 0 0 0 0.25 0"/>
<feBlend mode="normal" in2="BackgroundImageFix" result="effect1_dropShadow_2_46"/>
<feBlend mode="normal" in="SourceGraphic" in2="effect1_dropShadow_2_46" result="shape"/>
</filter>
<filter id="filter1_d_2_46" x="0" y="0" width="110" height="233" filterUnits="userSpaceOnUse" color-interpolation-filters="sRGB">
<feFlood flood-opacity="0" result="BackgroundImageFix"/>
<feColorMatrix in="SourceAlpha" type="matrix" values="0 0 0 0 0 0 0 0 0 0 0 0 0 0 0 0 0 0 127 0" result="hardAlpha"/>
<feOffset dy="4"/>
<feGaussianBlur stdDeviation="2"/>
<feComposite in2="hardAlpha" operator="out"/>
<feColorMatrix type="matrix" values="0 0 0 0 0 0 0 0 0 0 0 0 0 0 0 0 0 0 0.25 0"/>
<feBlend mode="normal" in2="BackgroundImageFix" result="effect1_dropShadow_2_46"/>
<feBlend mode="normal" in="SourceGraphic" in2="effect1_dropShadow_2_46" result="shape"/>
</filter>
</defs>
</svg>
