<svg fill="#FFFFFF" xmlns="http://www.w3.org/2000/svg" viewBox="0 0 330.22 48.1"><g id="Layer_2" data-name="Layer 2"><g id="Square"><path d="M87.45,9.84H83.78A1.12,1.12,0,0,0,82.67,11v10.2H70.39V11a1.12,1.12,0,0,0-1.12-1.12H65.56A1.15,1.15,0,0,0,64.44,11V37.35a1.15,1.15,0,0,0,1.12,1.12h3.71a1.12,1.12,0,0,0,1.12-1.12V26.71H82.67V37.35a1.12,1.12,0,0,0,1.11,1.12h3.67a1.14,1.14,0,0,0,1.12-1.12V11A1.14,1.14,0,0,0,87.45,9.84Z"/><path d="M110.79,9.84H94.57A1.12,1.12,0,0,0,93.45,11V37.35a1.12,1.12,0,0,0,1.12,1.12h16.22a1.12,1.12,0,0,0,1.12-1.12V34.08A1.12,1.12,0,0,0,110.79,33H99.35V26.71h9.49A1.12,1.12,0,0,0,110,25.59V22.28a1.14,1.14,0,0,0-1.12-1.12H99.35V15.34h11.44a1.12,1.12,0,0,0,1.12-1.11V11A1.12,1.12,0,0,0,110.79,9.84Z"/><path d="M177.31,30.76a1.09,1.09,0,0,0-1.47,0,9.19,9.19,0,0,1-5.88,2.2,8.62,8.62,0,0,1-8.57-8.86,8.65,8.65,0,0,1,8.53-8.93,9.09,9.09,0,0,1,5.89,2.25,1.1,1.1,0,0,0,.77.35h0a1,1,0,0,0,.71-.34l2.43-2.51a1.13,1.13,0,0,0,.33-.82,1.09,1.09,0,0,0-.39-.82,13.86,13.86,0,0,0-9.89-3.8,14.72,14.72,0,1,0,0,29.43,14,14,0,0,0,9.95-4,1.24,1.24,0,0,0,.35-.89,1,1,0,0,0-.31-.7Z"/><path d="M209.39,36.93,197.11,10.08a1,1,0,0,0-1-.64h-.4a1.08,1.08,0,0,0-1,.65L182.3,36.92a1.08,1.08,0,0,0,0,1.06,1.11,1.11,0,0,0,1,.49h3.47a1.53,1.53,0,0,0,1.48-1l1.86-4.09h11.46l1.86,4.1a1.5,1.5,0,0,0,1.48,1h3.47a1.11,1.11,0,0,0,1-.49A1.09,1.09,0,0,0,209.39,36.93Zm-17-8.71,3.42-7.67,3.49,7.67Z"/><path d="M239.86,10.35a1,1,0,0,0-1.08-.91h-.64a1,1,0,0,0-1,.61L228.63,28.3,220.12,10a1.07,1.07,0,0,0-1-.6h-.63a1,1,0,0,0-1.08.9l-4.74,26.8a1.16,1.16,0,0,0,.24,1,1.12,1.12,0,0,0,.87.37h3.59a1.13,1.13,0,0,0,1.07-.9l2.16-14.11,6.66,14.77a1,1,0,0,0,1,.64H229a1,1,0,0,0,1-.65l6.57-14.76,2.2,14.15a1.22,1.22,0,0,0,1.11.86h3.63a1.05,1.05,0,0,0,1.07-1.34Z"/><path d="M295.13,9.84h-3.79A1.12,1.12,0,0,0,290.22,11V27.3a5.45,5.45,0,1,1-10.88,0V11a1.12,1.12,0,0,0-1.12-1.12h-3.79A1.14,1.14,0,0,0,273.31,11V27.54a11.47,11.47,0,0,0,22.93,0V11A1.14,1.14,0,0,0,295.13,9.84Z"/><path d="M324.25,9.84h-3a.22.22,0,0,0-.22.22v.56a.22.22,0,0,0,.22.22h.94v3.7a.23.23,0,0,0,.22.22h.63a.22.22,0,0,0,.22-.22v-3.7h.95a.22.22,0,0,0,.22-.22v-.56A.22.22,0,0,0,324.25,9.84Z"/><path d="M330.21,14.57l-.8-4.55a.2.2,0,0,0-.21-.18h-.11a.21.21,0,0,0-.2.12l-1.41,3-1.42-3a.21.21,0,0,0-.2-.12h-.11a.21.21,0,0,0-.21.18l-.8,4.55a.25.25,0,0,0,0,.19.23.23,0,0,0,.18.07h.6a.22.22,0,0,0,.22-.18l.35-2.29,1.09,2.41a.22.22,0,0,0,.19.13h.12a.19.19,0,0,0,.2-.13l1.08-2.41.36,2.3a.22.22,0,0,0,.21.17H330a.24.24,0,0,0,.17-.07A.21.21,0,0,0,330.21,14.57Z"/><path d="M310.49,21.27c-3.18-1.3-4.48-2.5-4.48-4.13,0-1.17,1.2-2.44,3.15-2.44a11.56,11.56,0,0,1,5.34,2.14,1.4,1.4,0,0,0,1.9-.58L317.91,14a1.34,1.34,0,0,0,.18-1,1.19,1.19,0,0,0-.5-.78,14.56,14.56,0,0,0-8.19-2.74c-6.41,0-9.33,4.15-9.33,8,0,5.23,4.4,7.61,7.72,9s4.84,2.7,4.84,4.45c0,1.55-1.41,2.71-3.27,2.71-1.46,0-3.48-.82-5.7-2.33l-.1-.07h0a1.35,1.35,0,0,0-1-.24,1.28,1.28,0,0,0-.85.62L300.23,34h0a1.14,1.14,0,0,0,.27,1.64,13.07,13.07,0,0,0,9,3.21c6.19,0,9.53-4.25,9.53-8.26C319.05,25.41,314.72,23,310.49,21.27Z"/><path d="M132.22,27A9.06,9.06,0,0,0,138,18.77a9,9,0,0,0-9.06-8.93h-11.4A1.12,1.12,0,0,0,116.4,11V37.35a1.12,1.12,0,0,0,1.12,1.12h3.67a1.15,1.15,0,0,0,1.12-1.12l0-9.81V15.34h6.14a3.6,3.6,0,0,1,3.59,3.51,3.7,3.7,0,0,1-3.59,3.71h-3.41a1,1,0,0,0-1,1v3a1,1,0,0,0,1,1h1.08l5.2,10.37a1.06,1.06,0,0,0,1,.56h4.19a1.11,1.11,0,0,0,1-.53,1.2,1.2,0,0,0,0-1.16Z"/><path d="M260.48,9.84h-9.37A1.12,1.12,0,0,0,250,11V37.35a1.12,1.12,0,0,0,1.12,1.12h3.67a1.12,1.12,0,0,0,1.12-1.12V15.46h4.26A3.64,3.64,0,0,1,263.91,19a3.77,3.77,0,0,1-3.75,3.79h-1.54a1,1,0,0,0-1,1v3.64a1,1,0,0,0,1,1h1.9a9.25,9.25,0,1,0,0-18.5Z"/><path d="M40.47,0H2.18A2.19,2.19,0,0,0,0,2.18V46.36A1.74,1.74,0,0,0,2.27,48l18.65-6a1.28,1.28,0,0,1,.82,0L40.26,48a1.84,1.84,0,0,0,2.4-1.75v-44A2.19,2.19,0,0,0,40.47,0ZM12.31,17.08v6.37a.64.64,0,0,1-.12.35.66.66,0,0,1-.55.31H9.42a.68.68,0,0,1-.66-.66V7.67h0A.68.68,0,0,1,9.42,7h2.22a.67.67,0,0,1,.67.67v6.1h7.34V7.67A.67.67,0,0,1,20.32,7h2.19a.7.7,0,0,1,.67.66V19a10.86,10.86,0,0,0-3.53,2.85V17.08H12.31ZM33.84,34.77A8.19,8.19,0,0,1,28,37.09a8.61,8.61,0,1,1,0-17.22,8.12,8.12,0,0,1,5.79,2.23.68.68,0,0,1,.23.47.71.71,0,0,1-.2.49l-1.42,1.46a.59.59,0,0,1-.42.21h0a.64.64,0,0,1-.45-.2,5.24,5.24,0,0,0-3.44-1.32,5.06,5.06,0,0,0-5,5.23,5,5,0,0,0,5,5.18,5.39,5.39,0,0,0,3.44-1.29.63.63,0,0,1,.86,0l1.45,1.49a.53.53,0,0,1,.18.41A.72.72,0,0,1,33.84,34.77Z"/></g></g></svg>